#!OML:ASF H:\MichaelJackson\Top Level 1\Subject 1\Session 1\male.ASF
:FULLY-SPECIFIED
:DEGREES
417
root 7.66682 15.6041 10.6226 -351.4 -0.409676 -9.26287
lowerback 5.41245 -0.588277 1.56372
upperback 1.84789 -0.616018 6.06374
thorax -1.07889 -0.321713 5.4474
lowerneck -6.80904 -11.0691 -1.06456
upperneck 6.68322 -15.1834 5.41252
head 3.94999 -7.31424 1.07651
rclavicle 1.89839e-014 -5.00937e-014
rhumerus -64.624 44.356 -71.8264
rradius 109.309
rwrist 3.91562
rhand -0.00410734 -18.7308
rfingers 7.12502
rthumb 25.5864 -47.0322
lclavicle 1.89839e-014 -5.00937e-014
lhumerus -48.4711 -39.653 119.933
lradius 74.8794
lwrist 18.5876
lhand 17.831 23.8647
lfingers 7.12502
lthumb 42.5094 48.2818
rfemur -8.99322 1.36582 -1.26999
rtibia 34.5381
rfoot -1.68243 -4.54447
rtoes -17.7345
lfemur -41.0105 21.7869 -5.62121
ltibia 65.2172
lfoot -31.5324 -15.907
ltoes 0.354667
418
root 7.59866 15.5512 10.612 -351.484 0.175589 -9.37768
lowerback 5.34027 -0.438815 1.58439
upperback 1.84379 -0.419932 5.88525
thorax -1.06099 -0.222171 5.23316
lowerneck -6.73742 -10.9326 -0.941642
upperneck 6.754 -15.0042 5.28993
head 3.93144 -7.2277 1.03324
rclavicle -1.5207e-014 5.00937e-014
rhumerus -62.455 47.1209 -69.0388
rradius 109.683
rwrist 2.79956
rhand 4.04385 -17.4488
rfingers 7.12502
rthumb 29.4576 -45.1329
lclavicle -1.5207e-014 5.00937e-014
lhumerus -48.6919 -39.2627 120.093
lradius 73.9035
lwrist 17.8831
lhand 16.6965 23.7239
lfingers 7.12502
lthumb 41.446 48.4969
rfemur -9.76255 0.968 -0.781394
rtibia 34.6967
rfoot -2.04896 -4.42818
rtoes -20.0035
lfemur -41.6218 22.0353 -5.3081
ltibia 65.9025
lfoot -31.4876 -16.7423
ltoes 1.23072
419
root 7.52906 15.5 10.5988 -351.645 0.634284 -9.41368
lowerback 5.38675 -0.310918 1.51796
upperback 1.87024 -0.253579 5.67992
thorax -1.07384 -0.137911 5.04397
lowerneck -6.69032 -10.7596 -0.805338
upperneck 6.80068 -14.7759 5.16734
head 3.90669 -7.11677 0.990134
rclavicle 1.15295e-014 -8.74653e-015
rhumerus -59.6213 49.5572 -65.7469
rradius 110.017
rwrist 1.75051
rhand 8.22879 -16.4979
rfingers 7.12502
rthumb 33.4445 -43.4032
lclavicle 1.15295e-014 -8.74653e-015
lhumerus -48.8891 -38.7856 120.18
lradius 73.0347
lwrist 17.1588
lhand 15.8487 23.6114
lfingers 7.12502
lthumb 40.6499 48.638
rfemur -10.5166 0.591822 -0.349899
rtibia 35.1692
rfoot -2.38662 -4.93162
rtoes -21.9077
lfemur -42.0579 22.2451 -5.04822
ltibia 66.5127
lfoot -31.4779 -17.3338
ltoes 1.82671
420
root 7.45775 15.4511 10.5832 -351.904 1.03662 -9.34381
lowerback 5.56597 -0.215261 1.345
upperback 1.93563 -0.132515 5.44924
thorax -1.11612 -0.0767908 4.89284
lowerneck -6.65285 -10.564 -0.652008
upperneck 6.78152 -14.5148 5.04139
head 3.85819 -6.9909 0.94648
rclavicle 7.25564e-015 -6.75868e-015
rhumerus -56.1544 51.5681 -61.9406
rradius 110.34
rwrist 0.781775
rhand 12.3411 -16.0398
rfingers 7.12502
rthumb 37.3433 -42.0147
lclavicle 7.25564e-015 -6.75868e-015
lhumerus -49.046 -38.2741 120.199
lradius 72.2639
lwrist 16.4427
lhand 15.3206 23.5442
lfingers 7.12502
lthumb 40.1533 48.7238
rfemur -11.1264 0.16541 -0.0109273
rtibia 35.9052
rfoot -2.73954 -5.93197
rtoes -23.6542
lfemur -42.2992 22.3532 -4.84563
ltibia 67.0266
lfoot -31.5307 -17.7547
ltoes 2.15104
421
root 7.3847 15.4041 10.5655 -352.265 1.44172 -9.16389
lowerback 5.87608 -0.156797 1.07335
upperback 2.03908 -0.0642898 5.19854
thorax -1.18771 -0.042517 4.78117
lowerneck -6.59928 -10.3616 -0.489297
upperneck 6.66728 -14.2395 4.91524
head 3.77255 -6.86072 0.905419
rclavicle -3.62782e-015 -2.36554e-014
rhumerus -52.1683 53.0709 -57.6782
rradius 110.683
rwrist -0.0347647
rhand 16.2477 -16.1433
rfingers 7.12502
rthumb 41.0247 -41.0518
lclavicle -3.62782e-015 -2.36554e-014
lhumerus -49.1425 -37.7667 120.16
lradius 71.5595
lwrist 15.7567
lhand 15.0837 23.5016
lfingers 7.12502
lthumb 39.9305 48.7486
rfemur -11.5096 -0.375855 0.218167
rtibia 36.8381
rfoot -3.15006 -7.26766
rtoes -25.2747
lfemur -42.3658 22.3278 -4.69388
ltibia 67.4461
lfoot -31.644 -18.0979
ltoes 2.27671
422
root 7.31032 15.3579 10.5461 -352.693 1.89702 -8.88959
lowerback 6.27836 -0.136095 0.729706
upperback 2.16975 -0.0509384 4.93993
thorax -1.27809 -0.0359992 4.70666
lowerneck -6.52318 -10.1656 -0.337847
upperneck 6.46201 -13.9675 4.79888
head 3.65366 -6.73472 0.872311
rclavicle -7.95139e-016 -2.40529e-014
rhumerus -47.8266 54.0119 -53.06
rradius 111.076
rwrist -0.607677
rhand 19.8273 -16.7409
rfingers 7.12502
rthumb 44.3741 -40.4828
lclavicle -7.95139e-016 -2.40529e-014
lhumerus -49.1568 -37.2893 120.077
lradius 70.8879
lwrist 15.1123
lhand 15.0218 23.4699
lfingers 7.12502
lthumb 39.8722 48.7344
rfemur -11.6438 -1.09463 0.337329
rtibia 37.8821
rfoot -3.6661 -8.7587
rtoes -26.6285
lfemur -42.3324 22.1703 -4.59096
ltibia 67.7933
lfoot -31.7956 -18.4509
ltoes 2.28559
423
root 7.23541 15.3116 10.5262 -353.162 2.42585 -8.56448
lowerback 6.73953 -0.141857 0.375248
upperback 2.3104 -0.0754495 4.6815
thorax -1.38763 -0.0483796 4.64217
lowerneck -6.40809 -9.9939 -0.19814
upperneck 6.18271 -13.7239 4.69697
head 3.50588 -6.62496 0.847516
rclavicle 5.46658e-015 -6.95746e-015
rhumerus -43.3836 54.3425 -48.2788
rradius 111.539
rwrist -0.900356
rhand 22.9424 -17.7115
rfingers 7.12502
rthumb 47.2656 -40.2598
lclavicle 5.46658e-015 -6.95746e-015
lhumerus -49.1018 -36.8652 119.974
lradius 70.2282
lwrist 14.5494
lhand 15.041 23.4696
lfingers 7.12502
lthumb 39.8903 48.7287
rfemur -11.5248 -2.01483 0.375029
rtibia 38.9316
rfoot -4.39233 -10.1902
rtoes -27.4168
lfemur -42.261 21.9112 -4.50789
ltibia 68.1003
lfoot -31.9607 -18.8869
ltoes 2.28273
424
root 7.1608 15.2649 10.5064 -353.628 3.04747 -8.25267
lowerback 7.20715 -0.171493 0.0811325
upperback 2.44788 -0.130681 4.44552
thorax -1.50112 -0.0759357 4.57012
lowerneck -6.26653 -9.85522 -0.0863997
upperneck 5.85732 -13.5216 4.6195
head 3.34411 -6.53672 0.834499
rclavicle -1.92324e-014 -1.73937e-014
rhumerus -39.0269 54.045 -43.4917
rradius 112.055
rwrist -0.896484
rhand 25.5658 -18.7671
rfingers 7.12502
rthumb 49.6802 -40.1562
lclavicle -1.92324e-014 -1.73937e-014
lhumerus -48.9605 -36.4897 119.856
lradius 69.5637
lwrist 14.0709
lhand 15.0414 23.4957
lfingers 7.12502
lthumb 39.8906 48.7546
rfemur -11.1859 -3.14039 0.387502
rtibia 39.876
rfoot -5.32724 -11.5128
rtoes -27.9275
lfemur -42.2373 21.5965 -4.40956
ltibia 68.3987
lfoot -32.1021 -19.4568
ltoes 2.37852
